<?xml version="1.0" encoding="utf-8"?>
<!-- Generator: Adobe Illustrator 23.0.2, SVG Export Plug-In . SVG Version: 6.00 Build 0)  -->
<svg version="1.1" id="Layer_1" xmlns="http://www.w3.org/2000/svg" xmlns:xlink="http://www.w3.org/1999/xlink" x="0px" y="0px"
	 viewBox="0 0 128 128" style="enable-background:new 0 0 128 128;" xml:space="preserve">
<style type="text/css">
	.st0{fill:#FFFFFF;}
</style>
<g>
	<path class="st0" d="M82,66.8c-0.1,5.2-7.8,9.4-17.3,9.4c-9.5,0-17.2-4.2-17.3-9.4C33,68.1,26.7,81.2,21.6,95.1
		c-7,19.4,12.7,15.7,28.5,15.7h29.3c15.7,0,36.4,4.4,28.5-15.7C102.3,78.2,96.5,68.1,82,66.8z"/>
	<path class="st0" d="M43.2,41.1c0,0.2,0,0.4,0.1,0.6c1.4,15.5,10.5,27.5,21.5,27.5c11,0,20.1-12,21.5-27.5c0-0.2,0-0.4,0.1-0.6
		c0.1-0.7,0.2-1.4,0.2-2c0-0.5,0-0.9,0-1.4c0-1.2-0.1-2.3-0.2-3.5c-1.6-11-10.6-19.4-21.5-19.4s-19.9,8.4-21.5,19.4
		c-0.2,1.1-0.2,2.3-0.2,3.5c0,0.5,0,1,0,1.4C43.1,39.7,43.1,40.4,43.2,41.1z"/>
</g>
</svg>
