<?xml version="1.0" encoding="utf-8"?>
<!-- Generator: Adobe Illustrator 24.2.0, SVG Export Plug-In . SVG Version: 6.00 Build 0)  -->
<svg version="1.1" id="Layer_1" xmlns="http://www.w3.org/2000/svg" xmlns:xlink="http://www.w3.org/1999/xlink" x="0px" y="0px"
	 viewBox="0 0 128 128" style="enable-background:new 0 0 128 128;" xml:space="preserve">
<style type="text/css">
	.st0{fill:#FFFFFF;}
</style>
<g id="Group_899">
	<g id="Group_898">
		<g id="Group_897">
			<g id="Group_893" transform="translate(56.835 56.837)">
				<path id="Path_2045" class="st0" d="M29.73,52.83c-3.95,0-7.75-1.02-10.22-3.49c-6.59-6.59-6.59-17.27,0-23.86c0,0,0,0,0,0
					C26.26,18.72,41.09,14,55.56,14c1.19,0,2.16,0.97,2.16,2.16c0,0.57-0.23,1.12-0.63,1.52c-3.17,3.17-4.08,7.56-5.12,12.63
					c-1.18,5.76-2.52,12.28-7.82,17.58C41.26,50.78,35.34,52.83,29.73,52.83z M51.18,18.46c-13.07,0.87-24.05,5.5-28.62,10.07
					c-4.9,4.91-4.9,12.86,0,17.76c4.15,4.15,15.04,2.04,18.53-1.45c4.39-4.39,5.54-9.98,6.65-15.4
					C48.52,25.69,49.31,21.84,51.18,18.46z"/>
			</g>
			<g id="Group_895">
				<g id="Group_894">
					<path id="Path_2046" class="st0" d="M65.79,114H16.61c-1.14-0.01-2.06-0.94-2.05-2.08v-10.01c0-0.17,0.02-0.34,0.06-0.5
						c1.07-4.35,2.75-8.6,7.74-10.3l18.19-6.16c4.28-1.82,6.28-9.01,6.71-11.74c-3.14-2.93-6.06-7.33-6.06-11.29
						c0-1.47-0.43-2.08-0.66-2.2c-0.6-0.15-1.07-0.61-1.25-1.2c-0.22-0.57-2.19-5.68-2.19-9.11c0-0.17,0.02-0.34,0.06-0.5
						c0.29-1.21,0.99-2.28,1.99-3.03V34.83c0-8.7,7.8-20.83,20.49-20.83C72.19,14,75.6,20.54,76,23.77
						c2.12,1.6,4.14,4.35,4.14,11.06v11.05c0.99,0.75,1.7,1.82,1.99,3.03c0.04,0.16,0.06,0.33,0.06,0.5c0,3.42-1.97,8.54-2.2,9.11
						c-0.24,0.62-0.76,1.08-1.41,1.25c-0.4,0.64-0.58,1.39-0.5,2.14c0,3.95-2.92,8.36-6.06,11.28c0.33,1.92,0.88,3.79,1.64,5.58
						c0.45,1.05-0.02,2.27-1.06,2.74c-1.03,0.45-2.23-0.01-2.68-1.04c-0.01-0.01-0.01-0.03-0.02-0.04c-1.14-2.57-1.84-5.3-2.07-8.1
						c0-0.62,0.27-1.21,0.75-1.61c2.69-2.25,5.4-6,5.4-8.81c0-3.11,1.27-4.84,2.46-5.65c0.81-2.1,1.35-4.29,1.63-6.53
						c-0.06-0.14-0.13-0.28-0.23-0.39c-1,0-1.82-0.81-1.82-1.81c0-0.07,0-0.13,0.01-0.2v-12.5c0-6.13-1.94-7.38-2.77-7.92
						c-0.78-0.39-1.32-1.14-1.46-2c-0.02-0.27,0.01-0.55,0.09-0.81c-0.29-1.65-2.75-5.93-12.26-5.93
						c-10.01,0-16.39,9.87-16.39,16.67v12.5c0.01,1.14-0.91,2.07-2.05,2.08c0.1,0,0.06,0.14,0.01,0.3c0.27,2.24,0.82,4.44,1.63,6.54
						c1.2,0.82,2.46,2.55,2.46,5.66c0,2.8,2.72,6.55,5.4,8.81c0.47,0.4,0.75,0.99,0.75,1.61c0,2.65-2.37,13.5-9.46,16.51
						l-18.31,6.21c-2.9,0.98-4.05,3.35-5,7.11v7.67h47.13c1.15,0.03,2.06,0.98,2.04,2.13C67.81,113.08,66.91,113.97,65.79,114z"/>
				</g>
			</g>
			<g id="Group_896" transform="translate(57.781 74.102)">
				<path id="Path_2047" class="st0" d="M16.72,39.9c-1.19,0-2.16-0.97-2.16-2.16l0,0C14.56,26.42,28.2,14,33.99,14
					c1.19,0,2.16,0.97,2.16,2.16c0,1.19-0.97,2.16-2.16,2.16c-2.62,0-15.11,9.7-15.11,19.42C18.88,38.93,17.91,39.9,16.72,39.9
					C16.72,39.9,16.72,39.9,16.72,39.9z"/>
			</g>
		</g>
	</g>
</g>
</svg>
