<?xml version="1.0" encoding="utf-8"?>
<!-- Generator: Adobe Illustrator 24.2.0, SVG Export Plug-In . SVG Version: 6.00 Build 0)  -->
<svg version="1.1" id="Layer_1" xmlns="http://www.w3.org/2000/svg" xmlns:xlink="http://www.w3.org/1999/xlink" x="0px" y="0px"
	 viewBox="0 0 128 128" style="enable-background:new 0 0 128 128;" xml:space="preserve">
<style type="text/css">
	.st0{fill:#FFFFFF;}
</style>
<g id="noun_trusted_1920010" transform="translate(-8 -4)">
	<path id="Path_2035" class="st0" d="M90.63,57.93l-2.5-2.5L67.75,75.81l-7.07-7.06l-2.52,2.52l9.59,9.57L90.63,57.93z"/>
	<path id="Path_2036" class="st0" d="M30.05,75.88c0,23.49,22.42,41.72,41.73,41.72s41.72-18.23,41.72-41.72V25.56l-42.31-7.39
		l-41.14,7.39V75.88z M33.6,28.54l37.59-6.82l38.76,6.82v47.34c0,21.15-20.88,38.17-38.17,38.17S33.6,97.03,33.6,75.88V28.54z"/>
	<path id="Path_2037" class="st0" d="M71.78,103.4c12.13,0,27.52-12.96,27.52-27.52V37.49l-28.07-4.92l-26.97,4.87v38.44
		C44.26,90.44,59.65,103.4,71.78,103.4z M47.81,40.4l23.42-4.23l24.52,4.3v35.4c0,12.43-13.51,23.97-23.97,23.97
		S47.81,88.21,47.81,75.87L47.81,40.4z"/>
</g>
</svg>
